# xmcd
#
# Track frame offsets: 
#        150
#        14742
#        51315
#        134640
#        179125
#        282425
#
# Disc length: 4131 seconds
#
# Revision: 0
# Processed by: cddbd v1.5.2PL0 Copyright (c) Steve Scherf et al.
# Submitted via: ExactAudioCopy v0.99pb5
#
DISCID=64102106
DTITLE=Led Zeppelin  - Avocado Club-Fillmore West - San Francisco CA -
DTITLE=D 5
DYEAR=1900
DGENRE=
TTITLE0=Train Kept A Rollin'
TTITLE1=I Can't Quit You
TTITLE2=As Long As I Have You
TTITLE3=You Shook Me
TTITLE4=How Many More Times
TTITLE5=Communication Breakdown
EXTD=
EXTT0=
EXTT1=
EXTT2=
EXTT3=
EXTT4=
EXTT5=
PLAYORDER=
